<?xml version="1.0" standalone="no"?>
<!DOCTYPE svg PUBLIC "-//W3C//DTD SVG 20010904//EN"
 "http://www.w3.org/TR/2001/REC-SVG-20010904/DTD/svg10.dtd">
<svg version="1.0" xmlns="http://www.w3.org/2000/svg"
 width="1440.000000pt" height="1024.000000pt" viewBox="0 0 1440.000000 1024.000000"
 preserveAspectRatio="xMidYMid meet">
<metadata>
Created by potrace 1.16, written by Peter Selinger 2001-2019
</metadata>
<g transform="translate(0.000000,1024.000000) scale(0.100000,-0.100000)"
fill="#000000" stroke="none">
<path d="M1534 9295 c-58 -30 -111 -52 -116 -49 -18 11 -199 -18 -205 -32 -3
-8 -2 -30 1 -49 6 -30 11 -35 34 -35 35 0 151 27 178 41 16 8 53 8 138 0 100
-10 120 -9 146 4 59 30 68 98 21 146 -42 42 -74 38 -197 -26z"/>
<path d="M13064 9262 c-128 -60 -136 -228 -15 -309 44 -30 132 -32 176 -4 l30
19 61 -60 c48 -47 66 -59 82 -54 27 9 38 42 21 63 -7 8 -39 33 -71 55 -53 35
-57 41 -47 60 6 12 12 42 12 67 2 128 -133 217 -249 163z m163 -28 c69 -52 88
-121 55 -197 -49 -110 -196 -126 -269 -30 -38 50 -43 126 -11 173 40 59 84 82
146 78 31 -3 64 -13 79 -24z"/>
<path d="M13063 9220 c-89 -54 -82 -200 11 -244 122 -58 245 61 193 187 -30
71 -133 101 -204 57z m137 -15 c66 -34 78 -132 23 -187 -75 -75 -203 -23 -203
82 0 38 23 84 52 104 28 20 90 20 128 1z"/>
<path d="M10843 9230 c-46 -19 -67 -80 -50 -145 8 -28 8 -29 -11 -12 -25 23
-69 22 -82 -2 -15 -30 -14 -34 38 -92 40 -46 50 -67 66 -132 10 -42 22 -77 27
-77 17 0 224 53 231 59 4 3 -13 85 -37 181 -39 156 -47 178 -75 203 -31 28
-66 33 -107 17z m93 -89 c-14 -22 -26 -42 -26 -44 0 -1 20 -13 45 -27 49 -27
57 -49 29 -88 -18 -25 -8 -46 27 -57 10 -4 19 -11 19 -16 0 -6 -16 -1 -35 11
l-34 21 -20 -32 c-11 -17 -17 -37 -15 -43 2 -7 -5 -12 -16 -13 -11 -1 -18 2
-15 7 3 4 -16 20 -42 36 -27 15 -50 28 -52 30 -1 1 7 21 20 44 20 35 21 43 9
52 -12 8 -12 9 3 4 12 -4 23 4 37 27 11 17 20 35 20 38 0 3 -18 15 -40 28 -22
12 -43 27 -47 34 -3 6 14 -1 39 -16 26 -15 50 -27 55 -27 4 0 18 19 31 41 13
22 26 39 29 36 2 -3 -7 -23 -21 -46z"/>
<path d="M8708 8993 c-47 -50 -59 -75 -52 -110 4 -23 -2 -36 -34 -71 -21 -23
-44 -42 -51 -42 -19 0 -131 -111 -131 -130 0 -18 30 -50 46 -50 13 0 124 113
124 126 0 5 19 29 43 52 36 36 49 42 85 42 34 0 50 7 91 43 27 23 50 49 50 57
1 20 -99 120 -120 120 -8 0 -31 -17 -51 -37z m112 -28 c29 -30 52 -56 49 -58
-86 -78 -103 -89 -136 -82 -29 5 -38 1 -82 -40 -62 -58 -82 -42 -22 19 35 36
41 48 41 84 0 36 6 49 41 87 23 25 45 45 48 45 4 0 31 -25 61 -55z"/>
<path d="M5560 8540 l0 -220 170 0 170 0 0 220 0 220 -170 0 -170 0 0 -220z
m325 0 l0 -205 -155 0 -155 0 -3 195 c-1 107 0 200 3 207 3 11 39 13 157 11
l153 -3 0 -205z"/>
<path d="M3515 8658 c-18 -55 -63 -223 -60 -226 13 -13 362 -101 381 -96 37 9
74 60 74 100 0 49 -24 80 -76 100 l-45 17 30 13 c35 15 42 51 15 78 -19 19
-15 19 -85 0 -54 -15 -60 -15 -133 5 -89 25 -95 25 -101 9z m181 -78 c18 -27
32 -39 42 -35 12 4 12 3 3 -9 -9 -10 -7 -21 6 -45 21 -36 27 -37 71 -11 18 11
38 20 45 20 6 0 -8 -12 -33 -27 -25 -14 -47 -28 -49 -30 -3 -2 6 -21 18 -44
13 -22 21 -43 18 -46 -3 -3 -15 13 -27 36 -11 23 -25 41 -30 41 -5 0 -24 -9
-42 -20 -46 -28 -63 -25 -87 16 l-21 36 -36 -22 c-20 -11 -39 -19 -41 -16 -3
2 9 12 25 20 42 22 46 31 25 66 -11 20 -23 28 -33 25 -11 -5 -12 -3 -3 6 6 6
9 19 5 28 -5 13 -3 14 9 4 13 -10 24 -7 60 16 24 16 45 30 46 30 2 1 15 -17
29 -39z"/>
<path d="M7570 7684 c-81 -35 -130 -111 -130 -201 1 -131 91 -223 220 -223
128 0 220 92 220 220 0 93 -50 170 -132 204 -47 20 -132 20 -178 0z m168 -10
c78 -32 132 -111 132 -194 0 -113 -97 -210 -210 -210 -146 0 -250 155 -194
288 44 107 168 160 272 116z"/>
<path d="M7579 7617 c-107 -72 -106 -202 1 -275 29 -20 44 -23 88 -20 161 13
208 204 73 295 -23 16 -49 23 -81 23 -32 0 -58 -7 -81 -23z m147 -8 c32 -15
48 -32 65 -65 33 -70 15 -136 -52 -186 -67 -50 -171 -22 -208 56 -26 54 -26
79 0 134 16 33 32 49 63 63 53 24 80 24 132 -2z"/>
<path d="M986 7261 c-137 -137 -167 -172 -162 -189 13 -40 34 -32 101 40 l67
70 29 -28 c26 -25 31 -26 54 -14 34 18 157 141 175 174 13 25 12 28 -30 71
-24 25 -49 45 -55 45 -5 0 -86 -76 -179 -169z m257 65 c-21 -35 -85 -105 -132
-143 l-54 -44 -44 43 -43 42 97 98 97 98 43 -42 c23 -23 39 -46 36 -52z"/>
<path d="M11414 7398 c-51 -13 -68 -49 -60 -127 4 -36 13 -94 20 -128 8 -39
10 -65 4 -71 -5 -5 -16 -54 -24 -108 -17 -110 -15 -114 48 -114 36 0 36 0 42
48 15 135 17 161 8 166 -6 3 7 45 31 98 50 114 58 172 28 209 -24 31 -53 39
-97 27z m48 -23 c4 -5 8 -25 8 -44 0 -42 -39 -213 -52 -226 -12 -12 -6 230 7
260 7 17 6 18 -6 7 -10 -9 -15 -50 -19 -145 l-5 -132 -18 111 c-19 117 -15
153 20 172 22 13 56 11 65 -3z"/>
<path d="M2841 7357 c-23 -24 -39 -33 -53 -29 -28 7 -250 -213 -246 -245 2
-14 -9 -35 -30 -56 -61 -63 -18 -106 45 -45 22 21 42 32 55 30 30 -5 250 214
246 245 -2 14 9 35 30 56 37 38 40 70 7 75 -13 2 -33 -10 -54 -31z m-23 -70
l32 -33 -118 -117 -118 -117 -34 35 -34 35 114 115 c63 63 117 115 120 115 4
0 20 -15 38 -33z"/>
<path d="M9265 6851 c-48 -22 -69 -44 -90 -94 -28 -67 -12 -143 39 -190 l25
-23 -40 -67 c-48 -80 -49 -111 -3 -115 31 -3 33 -1 62 75 l29 78 50 1 c106 4
173 72 173 174 0 58 -15 93 -57 131 -54 50 -122 61 -188 30z m165 -31 c100
-71 80 -231 -34 -275 -141 -54 -269 93 -195 225 45 79 154 104 229 50z"/>
<path d="M9263 6810 c-65 -39 -85 -105 -54 -174 24 -55 70 -86 126 -86 74 0
145 67 145 138 0 45 -32 103 -68 125 -40 23 -109 22 -149 -3z m151 -31 c78
-68 44 -189 -57 -206 -78 -12 -137 41 -137 122 0 40 5 52 34 81 29 29 41 34
80 34 36 0 52 -6 80 -31z"/>
<path d="M13271 6400 c-117 -56 -151 -93 -131 -144 7 -19 4 -28 -18 -49 -15
-13 -32 -26 -39 -28 -19 -7 -133 -120 -133 -133 0 -14 42 -56 56 -56 16 0 134
124 134 141 0 9 10 25 23 37 19 18 29 20 53 13 57 -16 88 12 145 133 53 114
25 141 -90 86z m105 5 c7 -18 -46 -135 -83 -183 -24 -33 -28 -34 -73 -28 -39
5 -50 3 -65 -14 -10 -11 -22 -20 -27 -20 -15 0 -8 27 12 45 15 14 18 26 13 60
-5 39 -3 44 28 68 37 28 157 87 177 87 7 0 15 -7 18 -15z"/>
<path d="M3998 6243 c-47 -50 -59 -75 -52 -110 4 -23 -2 -36 -34 -71 -21 -23
-44 -42 -51 -42 -19 0 -131 -111 -131 -130 0 -18 30 -50 46 -50 13 0 124 113
124 126 0 5 19 29 43 52 36 36 49 42 85 42 34 0 50 7 91 43 27 23 50 49 50 57
1 20 -99 120 -120 120 -8 0 -31 -17 -51 -37z m112 -28 c29 -30 52 -56 49 -58
-86 -78 -103 -89 -136 -82 -29 5 -38 1 -82 -40 -62 -58 -82 -42 -22 19 35 36
41 48 41 84 0 36 6 49 41 87 23 25 45 45 48 45 4 0 31 -25 61 -55z"/>
<path d="M6331 6060 c-117 -56 -151 -93 -131 -144 7 -19 4 -28 -18 -49 -15
-13 -32 -26 -39 -28 -19 -7 -133 -120 -133 -133 0 -14 42 -56 56 -56 16 0 134
124 134 141 0 9 10 25 23 37 19 18 29 20 53 13 57 -16 88 12 145 133 53 114
25 141 -90 86z m105 5 c7 -18 -46 -135 -83 -183 -24 -33 -28 -34 -73 -28 -39
5 -50 3 -65 -14 -10 -11 -22 -20 -27 -20 -15 0 -8 27 12 45 15 14 18 26 13 60
-5 39 -3 44 28 68 37 28 157 87 177 87 7 0 15 -7 18 -15z"/>
<path d="M2114 5561 c-21 -16 -113 -104 -204 -195 -173 -174 -176 -179 -127
-210 14 -9 28 1 82 54 36 35 65 69 65 75 0 6 5 16 12 23 9 9 17 7 35 -10 28
-26 31 -24 115 81 67 83 97 141 98 184 0 36 -25 36 -76 -2z m66 1 c0 -46 -133
-242 -175 -258 -8 -3 -27 9 -44 28 l-30 33 87 89 c79 80 135 126 155 126 4 0
7 -8 7 -18z"/>
<path d="M12081 5057 c-23 -24 -39 -33 -53 -29 -28 7 -250 -213 -246 -245 2
-14 -9 -35 -30 -56 -61 -63 -18 -106 45 -45 22 21 42 32 55 30 30 -5 250 214
246 245 -2 14 9 35 30 56 37 38 40 70 7 75 -13 2 -33 -10 -54 -31z m-23 -70
l32 -33 -118 -117 -118 -117 -34 35 -34 35 114 115 c63 63 117 115 120 115 4
0 20 -15 38 -33z"/>
<path d="M8086 4891 c-137 -137 -167 -172 -162 -189 13 -40 34 -32 101 40 l67
70 29 -28 c26 -25 31 -26 54 -14 34 18 157 141 175 174 13 25 12 28 -30 71
-24 25 -49 45 -55 45 -5 0 -86 -76 -179 -169z m257 65 c-21 -35 -85 -105 -132
-143 l-54 -44 -44 43 -43 42 97 98 97 98 43 -42 c23 -23 39 -46 36 -52z"/>
<path d="M10050 3850 l0 -220 170 0 170 0 0 220 0 220 -170 0 -170 0 0 -220z
m325 0 l0 -205 -155 0 -155 0 -3 195 c-1 107 0 200 3 207 3 11 39 13 157 11
l153 -3 0 -205z"/>
<path d="M3653 3925 c-73 -44 -103 -143 -66 -220 9 -19 15 -36 12 -38 -2 -1
-30 -24 -62 -51 -47 -40 -58 -53 -55 -75 2 -20 9 -27 29 -29 22 -3 35 8 75 55
27 32 49 60 51 62 1 2 22 -5 47 -14 64 -25 126 -14 176 31 49 45 64 81 58 148
-11 130 -151 199 -265 131z m136 5 c80 -23 132 -112 111 -189 -29 -108 -139
-153 -235 -96 -132 77 -79 285 75 294 8 1 31 -3 49 -9z"/>
<path d="M3682 3903 c-49 -24 -76 -68 -76 -125 0 -79 58 -139 136 -140 145 -3
200 178 79 259 -40 27 -92 29 -139 6z m126 -23 c32 -20 62 -71 62 -106 0 -30
-30 -80 -59 -97 -16 -9 -48 -17 -71 -17 -34 0 -48 6 -76 34 -29 29 -34 41 -34
80 0 102 93 157 178 106z"/>
<path d="M1210 3554 c-81 -35 -130 -111 -130 -201 1 -131 91 -223 220 -223
128 0 220 92 220 220 0 93 -50 170 -132 204 -47 20 -132 20 -178 0z m168 -10
c174 -72 174 -316 0 -388 -133 -56 -287 47 -288 192 -1 147 154 253 288 196z"/>
<path d="M1219 3487 c-107 -72 -106 -202 1 -275 29 -20 44 -23 88 -20 59 5 95
27 130 78 66 97 -16 240 -138 240 -32 0 -58 -7 -81 -23z m147 -8 c78 -37 106
-141 56 -208 -50 -67 -116 -85 -186 -52 -33 17 -50 33 -65 65 -26 54 -26 79 0
134 16 33 32 49 63 63 53 24 80 24 132 -2z"/>
<path d="M5796 3546 c-12 -14 -46 -68 -75 -120 -29 -53 -57 -96 -63 -96 -17 0
-148 -124 -148 -141 0 -18 41 -59 59 -59 15 0 132 123 142 150 4 9 48 38 98
64 116 62 141 86 141 138 0 54 -35 88 -90 88 -31 0 -47 -6 -64 -24z"/>
<path d="M13003 3293 c-24 -26 -41 -39 -37 -30 8 23 -22 67 -46 67 -35 0 -50
-27 -50 -91 0 -53 -5 -66 -45 -129 -25 -39 -45 -74 -45 -78 0 -10 193 -132
206 -132 5 0 53 71 107 158 87 139 98 161 93 192 -7 48 -55 90 -103 90 -31 0
-44 -8 -80 -47z m57 -41 c11 -43 12 -44 46 -37 20 3 43 9 52 12 10 4 14 2 9
-3 -5 -5 -27 -13 -50 -19 -37 -9 -42 -13 -38 -35 3 -14 5 -41 5 -60 1 -32 -2
-36 -37 -44 l-39 -10 6 -45 c4 -32 3 -40 -3 -26 -5 11 -10 30 -10 43 -1 24 -4
25 -50 16 -17 -4 -31 -13 -31 -20 0 -12 -4 -12 -20 -2 -10 7 -15 15 -10 18 5
3 4 29 -4 63 -7 32 -11 59 -7 61 3 2 23 6 44 10 25 5 37 12 37 24 0 14 2 15 9
3 8 -12 17 -13 48 -5 21 5 37 15 36 21 -2 6 -5 31 -8 55 -6 49 -1 42 15 -20z"/>
<path d="M7958 2803 c-47 -50 -59 -75 -52 -110 4 -23 -2 -36 -34 -71 -21 -23
-44 -42 -51 -42 -19 0 -131 -111 -131 -130 0 -18 30 -50 46 -50 13 0 124 113
124 126 0 5 19 29 43 52 36 36 49 42 85 42 34 0 50 7 91 43 27 23 50 49 50 57
1 20 -99 120 -120 120 -8 0 -31 -17 -51 -37z m112 -28 c29 -30 52 -56 49 -58
-86 -78 -103 -89 -136 -82 -29 5 -38 1 -82 -40 -62 -58 -82 -42 -22 19 35 36
41 48 41 84 0 36 6 49 41 87 23 25 45 45 48 45 4 0 31 -25 61 -55z"/>
<path d="M10130 2114 c-81 -35 -130 -111 -130 -201 1 -131 91 -223 220 -223
128 0 220 92 220 220 0 93 -50 170 -132 204 -47 20 -132 20 -178 0z m168 -10
c78 -32 132 -111 132 -194 0 -113 -97 -210 -210 -210 -146 0 -250 155 -194
288 44 107 168 160 272 116z"/>
<path d="M10139 2047 c-107 -72 -106 -202 1 -275 29 -20 44 -23 88 -20 59 5
95 27 130 78 66 97 -16 240 -138 240 -32 0 -58 -7 -81 -23z m147 -8 c32 -15
48 -32 65 -65 33 -70 15 -136 -52 -186 -67 -50 -171 -22 -208 56 -26 54 -26
79 0 134 16 33 32 49 63 63 53 24 80 24 132 -2z"/>
<path d="M1583 1925 c-49 -21 -67 -56 -60 -117 6 -48 6 -50 -12 -34 -21 19
-52 21 -69 4 -23 -23 -12 -58 32 -106 24 -26 46 -60 50 -77 4 -16 14 -53 22
-81 l15 -51 119 30 c66 16 120 34 120 40 0 6 -19 86 -42 176 -32 127 -48 171
-67 192 -32 34 -67 42 -108 24z m88 -86 c-26 -45 -21 -58 29 -79 39 -16 44
-36 20 -78 -12 -19 -20 -35 -18 -36 2 -1 19 -12 38 -24 41 -25 33 -29 -12 -6
-31 16 -32 16 -51 -7 -10 -12 -16 -31 -14 -41 3 -10 1 -18 -3 -18 -5 0 -16 -3
-24 -6 -11 -4 -15 -2 -11 8 4 9 -8 22 -32 36 -70 40 -68 36 -39 78 14 22 22
40 16 42 -5 2 -10 8 -10 13 0 4 6 6 14 3 8 -3 22 9 34 30 l21 35 -45 26 c-25
15 -43 29 -41 32 3 2 24 -7 47 -22 40 -25 42 -26 55 -8 8 10 19 31 26 46 6 15
14 25 17 22 3 -3 -5 -23 -17 -46z"/>
<path d="M12616 1406 c-12 -14 -46 -68 -75 -120 -29 -53 -57 -96 -63 -96 -17
0 -148 -124 -148 -141 0 -18 41 -59 59 -59 15 0 132 123 142 150 4 9 48 38 98
64 116 62 141 86 141 138 0 54 -35 88 -90 88 -31 0 -47 -6 -64 -24z"/>
<path d="M4221 1237 c-23 -24 -39 -33 -53 -29 -28 7 -250 -213 -246 -245 2
-14 -9 -35 -30 -56 -61 -63 -18 -106 45 -45 22 21 42 32 55 30 30 -5 250 214
246 245 -2 14 9 35 30 56 37 38 40 70 7 75 -13 2 -33 -10 -54 -31z m-23 -70
l32 -33 -118 -117 -118 -117 -34 35 -34 35 114 115 c63 63 117 115 120 115 4
0 20 -15 38 -33z"/>
<path d="M7094 1241 c-21 -16 -113 -104 -204 -195 -173 -174 -176 -179 -127
-210 14 -9 28 1 82 54 36 35 65 69 65 75 0 6 5 16 12 23 9 9 17 7 35 -10 28
-26 31 -24 115 81 67 83 97 141 98 184 0 36 -25 36 -76 -2z m66 1 c0 -46 -133
-242 -175 -258 -8 -3 -27 9 -44 28 l-30 33 87 89 c79 80 135 126 155 126 4 0
7 -8 7 -18z"/>
</g>
</svg>
